#!OML:ASF F:\VICON\USERDATA\INSTALL\rory3\rory3.ASF
:FULLY-SPECIFIED
:DEGREES
2761
root -13.864 17.8443 12.5088 352.674 -75.0439 10.3136
lowerback 12.7054 1.93767 -0.0625929
upperback 2.21738 2.45583 -0.531662
thorax -4.76644 1.17671 -0.924627
lowerneck -11.1351 -1.27383 -11.7663
upperneck 42.4815 -1.73425 3.29337
head 17.7928 -2.71063 3.18382
rclavicle -4.25399e-014 1.51076e-014
rhumerus -31.2606 -9.07905 -84.7128
rradius 33.5304
rwrist 4.96895
rhand -15.1495 8.30601
rfingers 7.12502
rthumb 11.0206 -21.3847
lclavicle -4.25399e-014 1.51076e-014
lhumerus -38.4162 6.51141 81.259
lradius 35.8206
lwrist -4.46918
lhand -19.4413 26.8111
lfingers 7.12502
lthumb 6.8792 56.6793
rfemur -18.1633 -2.15367 21.4057
rtibia 34.7559
rfoot -14.7285 -4.00661
rtoes 11.0611
lfemur -19.3715 -8.48724 -20.3675
ltibia 30.378
lfoot -15.9559 -10.1742
ltoes -22.4326
2762
root -13.8287 17.8531 12.4902 352.787 -74.7472 10.1209
lowerback 12.8359 1.94316 0.0397373
upperback 2.29296 2.47523 -0.50546
thorax -4.75544 1.18388 -0.960981
lowerneck -11.1843 -1.15779 -11.6784
upperneck 42.6672 -1.59449 3.32978
head 17.8964 -2.64398 3.215
rclavicle 4.9398e-014 -2.46493e-014
rhumerus -30.9006 -9.53881 -84.6715
rradius 33.1054
rwrist 5.50814
rhand -15.196 8.38921
rfingers 7.12502
rthumb 10.9758 -21.3039
lclavicle 4.9398e-014 -2.46493e-014
lhumerus -38.4283 6.35606 81.3636
lradius 35.8975
lwrist -4.12557
lhand -19.3185 26.8182
lfingers 7.12502
lthumb 6.99775 56.6825
rfemur -18.0688 -2.13233 21.4241
rtibia 34.5211
rfoot -14.3648 -4.26608
rtoes 11.7024
lfemur -19.3277 -8.48349 -20.3535
ltibia 31.4481
lfoot -15.8906 -8.93995
ltoes -21.0395
2763
root -13.7938 17.8634 12.4721 352.758 -74.4563 10.1124
lowerback 12.9219 1.96123 0.102309
upperback 2.32737 2.50685 -0.493057
thorax -4.76394 1.19805 -0.990842
lowerneck -11.0952 -1.18426 -11.5915
upperneck 42.7652 -1.64623 3.24163
head 17.936 -2.66732 3.15096
rclavicle 1.33583e-013 -2.38542e-014
rhumerus -30.4584 -10.3144 -84.5215
rradius 32.5237
rwrist 6.49648
rhand -14.927 8.66312
rfingers 7.12502
rthumb 11.2352 -21.016
lclavicle 1.33583e-013 -2.38542e-014
lhumerus -38.5019 6.2489 81.4252
lradius 35.9973
lwrist -3.87607
lhand -19.3218 26.9041
lfingers 7.12502
lthumb 6.99452 56.7686
rfemur -17.985 -2.12705 21.4055
rtibia 34.2378
rfoot -13.9894 -4.42728
rtoes 11.7516
lfemur -19.3068 -8.39107 -20.3846
ltibia 32.5965
lfoot -15.6591 -8.23118
ltoes -18.1385
2764
root -13.7593 17.8785 12.4495 352.537 -74.4381 10.4889
lowerback 12.8309 2.08718 -0.0479932
upperback 2.28931 2.65641 -0.469627
thorax -4.75959 1.27483 -0.904192
lowerneck -10.8988 -1.36384 -11.6584
upperneck 42.7944 -1.93242 3.20576
head 17.9391 -2.801 3.09612
rclavicle -2.28602e-014 7.15625e-015
rhumerus -30.0122 -10.626 -84.402
rradius 32.011
rwrist 7.0729
rhand -14.8673 8.67354
rfingers 7.12502
rthumb 11.2928 -21.0025
lclavicle -2.28602e-014 7.15625e-015
lhumerus -38.666 6.23503 81.4695
lradius 36.1134
lwrist -3.80723
lhand -19.1016 27.1909
lfingers 7.12502
lthumb 7.20707 57.0482
rfemur -18.1329 -1.99939 21.3421
rtibia 33.9482
rfoot -13.6388 -4.53393
rtoes 10.8285
lfemur -19.4393 -8.04259 -20.458
ltibia 33.7845
lfoot -15.7881 -7.25607
ltoes -17.5681
2765
root -13.7313 17.8985 12.4218 352.416 -74.7779 10.9055
lowerback 12.4679 2.3663 -0.269036
upperback 2.25949 3.00252 -0.448899
thorax -4.59936 1.45113 -0.800585
lowerneck -10.7585 -1.49488 -11.7213
upperneck 42.8183 -2.17809 3.2885
head 17.9485 -2.90001 3.10481
rclavicle -2.39536e-014 -8.74653e-015
rhumerus -29.7882 -10.5103 -84.3416
rradius 31.8733
rwrist 7.01818
rhand -15.0393 8.35762
rfingers 7.12502
rthumb 11.1268 -21.3274
lclavicle -2.39536e-014 -8.74653e-015
lhumerus -38.7634 6.08555 81.5905
lradius 36.1362
lwrist -4.0203
lhand -18.8579 27.6269
lfingers 7.12502
lthumb 7.44234 57.476
rfemur -18.4486 -1.55167 21.3109
rtibia 33.6502
rfoot -13.3408 -4.54271
rtoes 11.0762
lfemur -19.6254 -7.34867 -20.49
ltibia 34.9694
lfoot -16.0409 -5.9716
ltoes -19.3756
2766
root -13.6965 17.9133 12.3932 352.263 -74.8506 11.299
lowerback 12.2354 2.55317 -0.465302
upperback 2.23501 3.22754 -0.463827
thorax -4.50502 1.56628 -0.732148
lowerneck -10.6955 -1.55835 -11.6124
upperneck 42.8699 -2.30166 3.24699
head 17.9742 -2.93837 3.04581
rclavicle 5.03919e-014 -1.55052e-014
rhumerus -29.6859 -10.4745 -84.289
rradius 31.8367
rwrist 6.89822
rhand -15.2526 8.17453
rfingers 7.12502
rthumb 10.9211 -21.5214
lclavicle 5.03919e-014 -1.55052e-014
lhumerus -38.8299 5.89911 81.6638
lradius 36.19
lwrist -4.22294
lhand -18.8923 27.58
lfingers 7.12502
lthumb 7.40915 57.4302
rfemur -18.6765 -1.23045 21.2313
rtibia 33.3305
rfoot -12.9864 -4.66513
rtoes 11.7102
lfemur -19.7588 -6.81033 -20.5465
ltibia 36.1541
lfoot -15.8982 -5.37337
ltoes -20.0551
2767
root -13.6598 17.9273 12.3758 351.865 -74.6888 11.7317
lowerback 12.2182 2.54011 -0.607962
upperback 2.25638 3.1929 -0.441964
thorax -4.48252 1.55121 -0.622528
lowerneck -10.7075 -1.49698 -11.6583
upperneck 42.9801 -2.18771 3.21866
head 18.0323 -2.90987 3.06279
rclavicle 2.77305e-014 -1.94809e-014
rhumerus -29.4901 -10.7203 -84.1457
rradius 31.62
rwrist 7.33579
rhand -15.2308 8.28759
rfingers 7.12502
rthumb 10.9421 -21.4073
lclavicle 2.77305e-014 -1.94809e-014
lhumerus -38.9915 6.05483 81.6989
lradius 36.3212
lwrist -4.02019
lhand -19.1055 27.3457
lfingers 7.12502
lthumb 7.20334 57.2031
rfemur -18.6301 -1.30327 21.0773
rtibia 32.9492
rfoot -12.7124 -4.65252
rtoes 11.6985
lfemur -19.658 -6.7867 -20.6475
ltibia 37.3511
lfoot -15.6598 -5.22341
ltoes -19.2483
2768
root -13.6217 17.9497 12.3605 351.57 -74.4379 11.9865
lowerback 12.3155 2.4928 -0.657696
upperback 2.26964 3.12355 -0.412881
thorax -4.52671 1.51726 -0.557468
lowerneck -10.7642 -1.43113 -11.8222
upperneck 43.1681 -2.08469 3.31675
head 18.1559 -2.89396 3.16104
rclavicle -1.87852e-014 -2.78299e-015
rhumerus -29.3346 -10.8243 -83.9993
rradius 31.4801
rwrist 7.55779
rhand -15.3387 8.18789
rfingers 7.12502
rthumb 10.8381 -21.5125
lclavicle -1.87852e-014 -2.78299e-015
lhumerus -39.1615 6.19562 81.7318
lradius 36.3676
lwrist -3.84727
lhand -19.4917 26.9925
lfingers 7.12502
lthumb 6.83049 56.8623
rfemur -18.5104 -1.5942 20.9674
rtibia 32.5471
rfoot -12.3185 -4.55094
rtoes 10.1254
lfemur -19.5145 -6.91833 -20.6868
ltibia 38.5614
lfoot -15.3411 -5.4547
ltoes -17.7503
2769
root -13.5912 17.9696 12.3475 352.191 -74.2454 11.3335
lowerback 12.298 2.54193 -0.414378
upperback 2.26918 3.22284 -0.376241
thorax -4.50598 1.5635 -0.670628
lowerneck -10.6923 -1.41944 -11.7341
upperneck 43.2752 -2.12365 3.35157
head 18.2037 -2.8958 3.15813
rclavicle 2.98177e-015 1.23246e-014
rhumerus -29.5602 -10.7804 -83.9025
rradius 31.8089
rwrist 7.20822
rhand -15.4837 7.89615
rfingers 7.12502
rthumb 10.6982 -21.8115
lclavicle 2.98177e-015 1.23246e-014
lhumerus -39.3013 6.03541 81.7872
lradius 36.4068
lwrist -3.92567
lhand -19.8024 26.7708
lfingers 7.12502
lthumb 6.53061 56.6502
rfemur -18.407 -1.75302 21.1092
rtibia 32.156
rfoot -11.9213 -4.46981
rtoes 8.67369
lfemur -19.385 -6.91315 -20.4616
ltibia 39.7753
lfoot -15.0457 -5.79823
ltoes -16.8516
